# xmcd
#
# Track frame offsets: 
#        150
#        19500
#        36370
#        58830
#        86385
#        111447
#        127025
#        151435
#        165812
#        179855
#        196047
#        213967
#
# Disc length: 3047 seconds
#
# Revision: 2
# Processed by: cddbd v1.5.2PL0 Copyright (c) Steve Scherf et al.
# Submitted via: ExactAudioCopy v1.0b3
#
DISCID=9e0be50c
DTITLE=Chris Smither - Happier Blue
DYEAR=1993
DGENRE=Folk
TTITLE0=Happier Blue
TTITLE1=Memphis in the Meantime
TTITLE2=The Devil's Real
TTITLE3=No More Cane on the Brazos
TTITLE4=No Reward
TTITLE5=Already Gone
TTITLE6=Killin' the Blues
TTITLE7=Rock 'n' Roll Doctor
TTITLE8=Magnolia
TTITLE9=Honeysuckle Dog
TTITLE10=Take It All
TTITLE11=Time to Spend
EXTD=
EXTT0=
EXTT1=
EXTT2=
EXTT3=
EXTT4=
EXTT5=
EXTT6=
EXTT7=
EXTT8=
EXTT9=
EXTT10=
EXTT11=
PLAYORDER=
